<?xml version="1.0" encoding="UTF-8"?><svg xmlns="http://www.w3.org/2000/svg" xmlns:xlink="http://www.w3.org/1999/xlink" contentScriptType="text/ecmascript" width="705" zoomAndPan="magnify" contentStyleType="text/css" viewBox="0 0 705 591.000005" height="591.000005" preserveAspectRatio="xMidYMid meet" version="1.0"><defs><clipPath id="clip-0"><path d="M 157.167969 64.90625 L 585.585938 64.90625 L 585.585938 481.167969 L 157.167969 481.167969 Z M 157.167969 64.90625 " clip-rule="nonzero"/></clipPath><clipPath id="clip-1"><path d="M 146.085938 74 L 607.773438 74 L 607.773438 481.167969 L 146.085938 481.167969 Z M 146.085938 74 " clip-rule="nonzero"/></clipPath></defs><g clip-path="url(#clip-0)"><path fill="rgb(100%, 56.858826%, 30.198669%)" d="M 224.449219 269.347656 L 181.535156 269.347656 C 179.824219 269.347656 178.4375 267.960938 178.4375 266.25 L 178.4375 260.878906 C 178.4375 259.167969 179.824219 257.78125 181.535156 257.78125 L 224.449219 257.78125 C 226.160156 257.78125 227.542969 259.167969 227.542969 260.878906 L 227.542969 266.25 C 227.542969 267.960938 226.160156 269.347656 224.449219 269.347656 Z M 157.464844 232.757812 L 157.464844 215.386719 L 166.871094 215.386719 L 166.871094 232.757812 C 166.871094 233.375 166.371094 233.875 165.753906 233.875 L 158.582031 233.875 C 157.964844 233.875 157.464844 233.375 157.464844 232.757812 Z M 235.359375 113.113281 L 235.296875 113.101562 L 235.296875 103.886719 C 235.296875 82.359375 217.867188 64.90625 196.367188 64.90625 C 174.863281 64.90625 157.4375 82.359375 157.4375 103.886719 L 157.4375 121.90625 L 159.59375 121.90625 L 168.472656 153.484375 C 168.824219 154.722656 170.105469 155.441406 171.339844 155.09375 L 176.824219 153.550781 C 178.058594 153.199219 178.777344 151.914062 178.429688 150.679688 L 167.59375 112.152344 C 167.242188 110.917969 165.960938 110.199219 164.726562 110.546875 L 161.371094 111.492188 L 161.371094 105.578125 C 161.371094 86.0625 177.042969 73.589844 196.367188 73.589844 C 215.695312 73.589844 231.359375 86.0625 231.359375 105.578125 L 231.359375 111.988281 L 229.878906 111.570312 C 228.640625 111.222656 227.359375 111.941406 227.011719 113.179688 L 216.171875 151.699219 C 215.824219 152.941406 216.542969 154.222656 217.78125 154.570312 L 223.261719 156.117188 C 224.496094 156.464844 225.78125 155.746094 226.128906 154.511719 L 236.964844 115.984375 C 237.3125 114.75 236.59375 113.464844 235.359375 113.113281 Z M 338.835938 125.558594 L 340.222656 126.949219 L 350.953125 116.207031 L 349.566406 114.816406 Z M 350.847656 111.25 L 349.457031 109.859375 L 338.726562 120.605469 L 340.117188 121.996094 Z M 572.464844 481.167969 L 177.382812 481.167969 C 177.382812 481.167969 206.035156 417.160156 239.011719 381.765625 C 271.988281 346.371094 250.378906 323.910156 273.402344 270.863281 C 335.144531 128.601562 431.875 110.472656 510.3125 130.824219 C 643.289062 165.324219 479.433594 258.820312 546.613281 276.605469 C 613.796875 294.390625 572.464844 481.167969 572.464844 481.167969 " fill-opacity="1" fill-rule="nonzero"/></g><path fill="rgb(100%, 8.628845%, 8.628845%)" d="M 219.332031 392.242188 L 173.066406 392.242188 C 172.214844 392.242188 171.519531 392.933594 171.519531 393.785156 L 171.519531 397.289062 L 174.945312 397.289062 L 178.050781 431.449219 L 214.347656 431.449219 L 217.453125 397.289062 L 220.878906 397.289062 L 220.878906 393.785156 C 220.878906 392.933594 220.1875 392.242188 219.332031 392.242188 Z M 380.722656 380.789062 C 380.722656 374.890625 375.085938 370.105469 368.132812 370.105469 C 361.179688 370.105469 355.542969 374.890625 355.542969 380.789062 C 355.542969 386.691406 361.179688 391.472656 368.132812 391.472656 C 375.085938 391.472656 380.722656 386.691406 380.722656 380.789062 Z M 456.0625 333.894531 L 461.679688 345.554688 L 461.679688 333.894531 Z M 480.386719 377.097656 L 480.074219 382.507812 L 435.484375 397.25 L 434.089844 392.699219 L 431.539062 427.960938 L 424.203125 428.191406 L 424.761719 422.996094 C 424.953125 422.132812 424.390625 421.292969 423.613281 421.292969 L 316.949219 421.292969 L 310.84375 373.34375 L 286.53125 400.21875 L 249.726562 378.902344 L 249.292969 371.726562 C 249.164062 369.597656 250.722656 367.746094 252.835938 367.511719 L 255.460938 367.222656 L 302.222656 305.609375 L 372.164062 278.933594 L 440.644531 301.886719 L 454.957031 331.597656 L 461.757812 331.597656 C 462.34375 331.597656 462.847656 331.8125 463.277344 332.246094 C 463.703125 332.675781 463.917969 333.1875 463.917969 333.785156 L 463.917969 347.355469 C 463.917969 347.953125 463.707031 348.464844 463.289062 348.890625 L 474.433594 372.035156 L 477.589844 373.03125 C 479.339844 373.585938 480.492188 375.261719 480.386719 377.097656 Z M 516.546875 156.773438 L 524.777344 156.773438 C 525.433594 156.773438 525.960938 156.246094 525.960938 155.59375 L 525.960938 154.148438 L 515.371094 154.148438 L 515.371094 155.59375 C 515.371094 156.246094 515.894531 156.773438 516.546875 156.773438 Z M 394.5625 127.636719 C 396.628906 127.636719 398.308594 125.953125 398.308594 123.882812 C 398.308594 121.8125 396.628906 120.132812 394.5625 120.132812 C 392.5 120.132812 390.816406 121.8125 390.816406 123.882812 C 390.816406 125.953125 392.5 127.636719 394.5625 127.636719 Z M 390.453125 96.527344 L 299.285156 96.527344 L 299.285156 151.238281 L 390.453125 151.238281 Z M 496.121094 341.414062 C 495.804688 341.414062 495.535156 341.527344 495.316406 341.75 C 495.097656 341.976562 494.988281 342.238281 494.988281 342.546875 L 494.988281 347.273438 L 492.722656 347.273438 L 492.722656 331.625 L 487.03125 331.625 C 486.71875 331.625 486.445312 331.734375 486.226562 331.953125 C 486.007812 332.179688 485.898438 332.445312 485.898438 332.757812 C 485.898438 333.074219 486.007812 333.339844 486.226562 333.5625 C 486.445312 333.78125 486.71875 333.894531 487.03125 333.894531 L 490.453125 333.894531 L 490.453125 347.273438 L 486.976562 347.273438 C 486.664062 347.273438 486.394531 347.382812 486.171875 347.597656 C 485.953125 347.816406 485.84375 348.074219 485.84375 348.382812 C 485.84375 348.695312 485.953125 348.964844 486.171875 349.199219 C 486.394531 349.425781 486.664062 349.539062 486.976562 349.539062 L 496.121094 349.539062 C 496.433594 349.539062 496.699219 349.433594 496.921875 349.207031 C 497.140625 348.988281 497.253906 348.722656 497.253906 348.40625 L 497.253906 342.546875 C 497.253906 342.230469 497.140625 341.964844 496.921875 341.742188 C 496.699219 341.523438 496.433594 341.414062 496.121094 341.414062 Z M 478.359375 333.894531 L 471.457031 333.894531 L 471.457031 347.273438 L 478.359375 347.273438 Z M 479.957031 332.246094 C 480.382812 332.675781 480.601562 333.1875 480.601562 333.785156 L 480.601562 347.355469 C 480.601562 347.960938 480.382812 348.472656 479.957031 348.898438 C 479.53125 349.328125 479.015625 349.539062 478.414062 349.539062 L 471.375 349.539062 C 470.765625 349.539062 470.25 349.328125 469.824219 348.898438 C 469.402344 348.472656 469.1875 347.960938 469.1875 347.355469 L 469.1875 333.785156 C 469.1875 333.1875 469.40625 332.675781 469.839844 332.246094 C 470.265625 331.8125 470.78125 331.597656 471.375 331.597656 L 478.441406 331.597656 C 479.023438 331.597656 479.53125 331.8125 479.957031 332.246094 Z M 564.835938 287.902344 L 564.835938 292.035156 L 562.570312 292.035156 L 562.570312 285.582031 C 561.839844 284.882812 561.085938 284.21875 560.304688 283.585938 L 560.304688 292.035156 L 556.824219 292.035156 C 556.511719 292.035156 556.242188 292.144531 556.023438 292.359375 C 555.804688 292.578125 555.695312 292.835938 555.695312 293.144531 C 555.695312 293.457031 555.804688 293.730469 556.023438 293.960938 C 556.242188 294.1875 556.511719 294.304688 556.824219 294.304688 L 565.96875 294.304688 C 566.28125 294.304688 566.550781 294.195312 566.773438 293.96875 C 566.992188 293.75 567.101562 293.484375 567.101562 293.167969 L 567.101562 290.617188 C 566.371094 289.675781 565.617188 288.769531 564.835938 287.902344 Z M 548.207031 278.65625 L 541.304688 278.65625 L 541.304688 292.035156 L 548.207031 292.035156 Z M 550.316406 277.800781 C 550.398438 278.035156 550.449219 278.28125 550.449219 278.546875 L 550.449219 292.117188 C 550.449219 292.722656 550.234375 293.234375 549.808594 293.660156 C 549.378906 294.089844 548.863281 294.304688 548.261719 294.304688 L 541.222656 294.304688 C 540.613281 294.304688 540.097656 294.089844 539.675781 293.660156 C 539.25 293.234375 539.039062 292.722656 539.039062 292.117188 L 539.039062 278.546875 C 539.039062 277.949219 539.257812 277.4375 539.6875 277.007812 C 540.117188 276.574219 540.628906 276.359375 541.222656 276.359375 L 545.75 276.359375 C 546.035156 276.441406 546.320312 276.523438 546.613281 276.605469 C 547.886719 276.941406 549.117188 277.34375 550.316406 277.800781 Z M 531.527344 278.65625 L 524.625 278.65625 L 524.625 292.035156 L 531.527344 292.035156 Z M 533.125 277.007812 C 533.554688 277.4375 533.765625 277.949219 533.765625 278.546875 L 533.765625 292.117188 C 533.765625 292.722656 533.554688 293.234375 533.125 293.660156 C 532.699219 294.089844 532.183594 294.304688 531.582031 294.304688 L 524.542969 294.304688 C 523.933594 294.304688 523.414062 294.089844 522.992188 293.660156 C 522.570312 293.234375 522.359375 292.722656 522.359375 292.117188 L 522.359375 278.546875 C 522.359375 277.949219 522.574219 277.4375 523.007812 277.007812 C 523.4375 276.574219 523.949219 276.359375 524.542969 276.359375 L 531.609375 276.359375 C 532.195312 276.359375 532.699219 276.574219 533.125 277.007812 Z M 515.929688 286.175781 C 515.613281 286.175781 515.34375 286.289062 515.125 286.511719 C 514.902344 286.738281 514.796875 287.003906 514.796875 287.308594 L 514.796875 292.035156 L 512.53125 292.035156 L 512.53125 276.386719 L 506.839844 276.386719 C 506.523438 276.386719 506.257812 276.496094 506.035156 276.714844 C 505.816406 276.941406 505.707031 277.207031 505.707031 277.519531 C 505.707031 277.835938 505.816406 278.101562 506.035156 278.324219 C 506.257812 278.542969 506.523438 278.65625 506.839844 278.65625 L 510.265625 278.65625 L 510.265625 292.035156 L 506.785156 292.035156 C 506.472656 292.035156 506.199219 292.144531 505.980469 292.359375 C 505.765625 292.578125 505.652344 292.835938 505.652344 293.144531 C 505.652344 293.457031 505.765625 293.730469 505.980469 293.960938 C 506.199219 294.1875 506.472656 294.304688 506.785156 294.304688 L 515.929688 294.304688 C 516.242188 294.304688 516.507812 294.195312 516.730469 293.96875 C 516.949219 293.75 517.0625 293.484375 517.0625 293.167969 L 517.0625 287.308594 C 517.0625 286.992188 516.949219 286.726562 516.730469 286.507812 C 516.507812 286.285156 516.242188 286.175781 515.929688 286.175781 Z M 498.167969 278.65625 L 491.265625 278.65625 L 491.265625 292.035156 L 498.167969 292.035156 Z M 499.765625 277.007812 C 500.191406 277.4375 500.40625 277.949219 500.40625 278.546875 L 500.40625 292.117188 C 500.40625 292.722656 500.191406 293.234375 499.765625 293.660156 C 499.335938 294.089844 498.824219 294.304688 498.222656 294.304688 L 491.183594 294.304688 C 490.574219 294.304688 490.054688 294.089844 489.632812 293.660156 C 489.210938 293.234375 488.996094 292.722656 488.996094 292.117188 L 488.996094 278.546875 C 488.996094 277.949219 489.214844 277.4375 489.644531 277.007812 C 490.074219 276.574219 490.585938 276.359375 491.183594 276.359375 L 498.25 276.359375 C 498.832031 276.359375 499.335938 276.574219 499.765625 277.007812 Z M 471.296875 226.875 L 478.195312 226.875 L 478.195312 213.492188 L 471.296875 213.492188 Z M 471.210938 211.195312 L 478.277344 211.195312 C 478.863281 211.195312 479.367188 211.414062 479.796875 211.847656 C 480.222656 212.277344 480.433594 212.792969 480.433594 213.386719 L 480.433594 226.957031 C 480.433594 227.558594 480.222656 228.070312 479.796875 228.5 C 479.367188 228.929688 478.855469 229.140625 478.253906 229.140625 L 471.210938 229.140625 C 470.601562 229.140625 470.082031 228.929688 469.660156 228.5 C 469.238281 228.070312 469.027344 227.558594 469.027344 226.957031 L 469.027344 213.386719 C 469.027344 212.792969 469.242188 212.277344 469.675781 211.847656 C 470.105469 211.414062 470.617188 211.195312 471.210938 211.195312 Z M 453.453125 226.875 C 453.140625 226.875 452.867188 226.980469 452.648438 227.199219 C 452.429688 227.414062 452.320312 227.675781 452.320312 227.980469 C 452.320312 228.296875 452.429688 228.566406 452.648438 228.796875 C 452.867188 229.027344 453.140625 229.140625 453.453125 229.140625 L 462.597656 229.140625 C 462.910156 229.140625 463.175781 229.03125 463.398438 228.8125 C 463.617188 228.59375 463.730469 228.324219 463.730469 228.011719 L 463.730469 222.148438 C 463.730469 221.832031 463.617188 221.566406 463.398438 221.34375 C 463.175781 221.125 462.910156 221.015625 462.597656 221.015625 C 462.277344 221.015625 462.011719 221.128906 461.792969 221.351562 C 461.570312 221.578125 461.464844 221.84375 461.464844 222.148438 L 461.464844 226.875 L 459.199219 226.875 L 459.199219 211.226562 L 453.507812 211.226562 C 453.195312 211.226562 452.921875 211.335938 452.707031 211.558594 C 452.484375 211.777344 452.375 212.046875 452.375 212.359375 C 452.375 212.675781 452.484375 212.945312 452.707031 213.160156 C 452.921875 213.386719 453.195312 213.492188 453.507812 213.492188 L 456.933594 213.492188 L 456.933594 226.875 Z M 437.933594 226.875 L 444.835938 226.875 L 444.835938 213.492188 L 437.933594 213.492188 Z M 437.851562 211.195312 L 444.917969 211.195312 C 445.5 211.195312 446.003906 211.414062 446.433594 211.847656 C 446.859375 212.277344 447.074219 212.792969 447.074219 213.386719 L 447.074219 226.957031 C 447.074219 227.558594 446.859375 228.070312 446.433594 228.5 C 446.003906 228.929688 445.492188 229.140625 444.890625 229.140625 L 437.851562 229.140625 C 437.242188 229.140625 436.722656 228.929688 436.300781 228.5 C 435.878906 228.070312 435.667969 227.558594 435.667969 226.957031 L 435.667969 213.386719 C 435.667969 212.792969 435.882812 212.277344 436.3125 211.847656 C 436.746094 211.414062 437.257812 211.195312 437.851562 211.195312 Z M 425.835938 211.226562 L 420.144531 211.226562 C 419.832031 211.226562 419.566406 211.335938 419.34375 211.558594 C 419.125 211.777344 419.011719 212.046875 419.011719 212.359375 C 419.011719 212.675781 419.125 212.945312 419.34375 213.160156 C 419.566406 213.386719 419.832031 213.492188 420.144531 213.492188 L 423.570312 213.492188 L 423.570312 226.875 L 420.089844 226.875 C 419.777344 226.875 419.511719 226.980469 419.289062 227.199219 C 419.070312 227.414062 418.957031 227.675781 418.957031 227.980469 C 418.957031 228.296875 419.070312 228.566406 419.289062 228.796875 C 419.511719 229.027344 419.777344 229.140625 420.089844 229.140625 L 429.234375 229.140625 C 429.546875 229.140625 429.820312 229.03125 430.035156 228.8125 C 430.257812 228.59375 430.367188 228.324219 430.367188 228.011719 L 430.367188 222.148438 C 430.367188 221.832031 430.257812 221.566406 430.035156 221.34375 C 429.820312 221.125 429.546875 221.015625 429.234375 221.015625 C 428.921875 221.015625 428.652344 221.128906 428.433594 221.351562 C 428.214844 221.578125 428.101562 221.84375 428.101562 222.148438 L 428.101562 226.875 L 425.835938 226.875 Z M 404.570312 226.875 L 411.476562 226.875 L 411.476562 213.492188 L 404.570312 213.492188 Z M 404.488281 211.195312 L 411.558594 211.195312 C 412.140625 211.195312 412.648438 211.414062 413.074219 211.847656 C 413.5 212.277344 413.714844 212.792969 413.714844 213.386719 L 413.714844 226.957031 C 413.714844 227.558594 413.5 228.070312 413.074219 228.5 C 412.648438 228.929688 412.132812 229.140625 411.527344 229.140625 L 404.488281 229.140625 C 403.878906 229.140625 403.363281 228.929688 402.941406 228.5 C 402.515625 228.070312 402.304688 227.558594 402.304688 226.957031 L 402.304688 213.386719 C 402.304688 212.792969 402.523438 212.277344 402.953125 211.847656 C 403.386719 211.414062 403.898438 211.195312 404.488281 211.195312 Z M 386.734375 226.875 C 386.414062 226.875 386.148438 226.980469 385.929688 227.199219 C 385.707031 227.414062 385.601562 227.675781 385.601562 227.980469 C 385.601562 228.296875 385.707031 228.566406 385.929688 228.796875 C 386.148438 229.027344 386.414062 229.140625 386.734375 229.140625 L 395.871094 229.140625 C 396.1875 229.140625 396.457031 229.03125 396.675781 228.8125 C 396.894531 228.59375 397.007812 228.324219 397.007812 228.011719 L 397.007812 222.148438 C 397.007812 221.832031 396.894531 221.566406 396.675781 221.34375 C 396.457031 221.125 396.1875 221.015625 395.871094 221.015625 C 395.558594 221.015625 395.292969 221.128906 395.070312 221.351562 C 394.851562 221.578125 394.738281 221.84375 394.738281 222.148438 L 394.738281 226.875 L 392.472656 226.875 L 392.472656 211.226562 L 386.78125 211.226562 C 386.46875 211.226562 386.203125 211.335938 385.984375 211.558594 C 385.761719 211.777344 385.652344 212.046875 385.652344 212.359375 C 385.652344 212.675781 385.761719 212.945312 385.984375 213.160156 C 386.203125 213.386719 386.46875 213.492188 386.78125 213.492188 L 390.210938 213.492188 L 390.210938 226.875 Z M 370.050781 226.875 C 369.734375 226.875 369.46875 226.980469 369.246094 227.199219 C 369.03125 227.414062 368.917969 227.675781 368.917969 227.980469 C 368.917969 228.296875 369.03125 228.566406 369.246094 228.796875 C 369.46875 229.027344 369.734375 229.140625 370.050781 229.140625 L 379.195312 229.140625 C 379.507812 229.140625 379.773438 229.03125 379.996094 228.8125 C 380.214844 228.59375 380.328125 228.324219 380.328125 228.011719 L 380.328125 222.148438 C 380.328125 221.832031 380.214844 221.566406 379.996094 221.34375 C 379.773438 221.125 379.507812 221.015625 379.195312 221.015625 C 378.878906 221.015625 378.609375 221.128906 378.390625 221.351562 C 378.171875 221.578125 378.058594 221.84375 378.058594 222.148438 L 378.058594 226.875 L 375.792969 226.875 L 375.792969 211.226562 L 370.105469 211.226562 C 369.789062 211.226562 369.523438 211.335938 369.304688 211.558594 C 369.082031 211.777344 368.972656 212.046875 368.972656 212.359375 C 368.972656 212.675781 369.082031 212.945312 369.304688 213.160156 C 369.523438 213.386719 369.789062 213.492188 370.105469 213.492188 L 373.53125 213.492188 L 373.53125 226.875 Z M 354.53125 226.875 L 361.433594 226.875 L 361.433594 213.492188 L 354.53125 213.492188 Z M 352.898438 228.5 C 352.476562 228.070312 352.265625 227.558594 352.265625 226.957031 L 352.265625 213.386719 C 352.265625 212.792969 352.480469 212.277344 352.914062 211.847656 C 353.34375 211.414062 353.855469 211.195312 354.449219 211.195312 L 361.515625 211.195312 C 362.097656 211.195312 362.605469 211.414062 363.03125 211.847656 C 363.457031 212.277344 363.671875 212.792969 363.671875 213.386719 L 363.671875 226.957031 C 363.671875 227.558594 363.457031 228.070312 363.03125 228.5 C 362.605469 228.929688 362.089844 229.140625 361.488281 229.140625 L 354.449219 229.140625 C 353.839844 229.140625 353.320312 228.929688 352.898438 228.5 Z M 541.335938 181.644531 L 534.425781 181.644531 L 534.425781 195.023438 L 541.335938 195.023438 Z M 541.386719 197.292969 L 534.347656 197.292969 C 533.738281 197.292969 533.21875 197.082031 532.796875 196.652344 C 532.375 196.222656 532.164062 195.707031 532.164062 195.105469 L 532.164062 181.535156 C 532.164062 180.941406 532.378906 180.429688 532.8125 179.996094 C 533.242188 179.566406 533.753906 179.347656 534.347656 179.347656 L 541.414062 179.347656 C 541.996094 179.347656 542.503906 179.566406 542.933594 179.996094 C 543.355469 180.429688 543.570312 180.941406 543.570312 181.535156 L 543.570312 195.105469 C 543.570312 195.707031 543.355469 196.222656 542.933594 196.652344 C 542.503906 197.082031 541.992188 197.292969 541.386719 197.292969 Z M 524.929688 189.5 C 524.707031 189.726562 524.597656 189.996094 524.597656 190.296875 L 524.597656 195.023438 L 522.332031 195.023438 L 522.332031 179.375 L 516.640625 179.375 C 516.328125 179.375 516.058594 179.484375 515.84375 179.707031 C 515.617188 179.925781 515.511719 180.195312 515.511719 180.511719 C 515.511719 180.824219 515.617188 181.09375 515.84375 181.3125 C 516.058594 181.535156 516.328125 181.644531 516.640625 181.644531 L 520.070312 181.644531 L 520.070312 195.023438 L 516.589844 195.023438 C 516.273438 195.023438 516.007812 195.132812 515.785156 195.351562 C 515.566406 195.5625 515.457031 195.828125 515.457031 196.128906 C 515.457031 196.449219 515.566406 196.71875 515.785156 196.945312 C 516.007812 197.175781 516.273438 197.292969 516.589844 197.292969 L 525.730469 197.292969 C 526.046875 197.292969 526.3125 197.179688 526.535156 196.960938 C 526.753906 196.742188 526.863281 196.472656 526.863281 196.160156 L 526.863281 190.296875 C 526.863281 189.984375 526.753906 189.71875 526.535156 189.496094 C 526.3125 189.273438 526.046875 189.164062 525.730469 189.164062 C 525.417969 189.164062 525.152344 189.277344 524.929688 189.5 Z M 507.972656 181.644531 L 501.070312 181.644531 L 501.070312 195.023438 L 507.972656 195.023438 Z M 508.027344 197.292969 L 500.984375 197.292969 C 500.375 197.292969 499.859375 197.082031 499.433594 196.652344 C 499.011719 196.222656 498.804688 195.707031 498.804688 195.105469 L 498.804688 181.535156 C 498.804688 180.941406 499.015625 180.429688 499.449219 179.996094 C 499.882812 179.566406 500.394531 179.347656 500.984375 179.347656 L 508.050781 179.347656 C 508.636719 179.347656 509.144531 179.566406 509.570312 179.996094 C 510 180.429688 510.210938 180.941406 510.210938 181.535156 L 510.210938 195.105469 C 510.210938 195.707031 510 196.222656 509.570312 196.652344 C 509.144531 197.082031 508.628906 197.292969 508.027344 197.292969 Z M 493.171875 196.960938 C 493.394531 196.742188 493.5 196.472656 493.5 196.160156 L 493.5 190.296875 C 493.5 189.984375 493.394531 189.71875 493.171875 189.496094 C 492.953125 189.273438 492.6875 189.164062 492.371094 189.164062 C 492.054688 189.164062 491.789062 189.277344 491.570312 189.5 C 491.347656 189.726562 491.238281 189.996094 491.238281 190.296875 L 491.238281 195.023438 L 488.972656 195.023438 L 488.972656 179.375 L 483.28125 179.375 C 482.964844 179.375 482.699219 179.484375 482.480469 179.707031 C 482.261719 179.925781 482.148438 180.195312 482.148438 180.511719 C 482.148438 180.824219 482.261719 181.09375 482.480469 181.3125 C 482.699219 181.535156 482.964844 181.644531 483.28125 181.644531 L 486.707031 181.644531 L 486.707031 195.023438 L 483.226562 195.023438 C 482.914062 195.023438 482.644531 195.132812 482.425781 195.351562 C 482.207031 195.5625 482.09375 195.828125 482.09375 196.128906 C 482.09375 196.449219 482.207031 196.71875 482.425781 196.945312 C 482.644531 197.175781 482.914062 197.292969 483.226562 197.292969 L 492.371094 197.292969 C 492.6875 197.292969 492.953125 197.179688 493.171875 196.960938 Z M 474.609375 181.644531 L 467.707031 181.644531 L 467.707031 195.023438 L 474.609375 195.023438 Z M 474.691406 179.347656 C 475.277344 179.347656 475.78125 179.566406 476.207031 179.996094 C 476.636719 180.429688 476.851562 180.941406 476.851562 181.535156 L 476.851562 195.105469 C 476.851562 195.707031 476.636719 196.222656 476.207031 196.652344 C 475.78125 197.082031 475.265625 197.292969 474.664062 197.292969 L 467.628906 197.292969 C 467.015625 197.292969 466.5 197.082031 466.078125 196.652344 C 465.652344 196.222656 465.441406 195.707031 465.441406 195.105469 L 465.441406 181.535156 C 465.441406 180.941406 465.65625 180.429688 466.085938 179.996094 C 466.519531 179.566406 467.03125 179.347656 467.628906 179.347656 Z M 449.867188 195.023438 C 449.554688 195.023438 449.285156 195.132812 449.0625 195.351562 C 448.84375 195.5625 448.734375 195.828125 448.734375 196.128906 C 448.734375 196.449219 448.84375 196.71875 449.0625 196.945312 C 449.285156 197.175781 449.554688 197.292969 449.867188 197.292969 L 459.007812 197.292969 C 459.324219 197.292969 459.589844 197.179688 459.8125 196.960938 C 460.03125 196.742188 460.144531 196.472656 460.144531 196.160156 L 460.144531 190.296875 C 460.144531 189.984375 460.03125 189.71875 459.8125 189.496094 C 459.589844 189.273438 459.324219 189.164062 459.007812 189.164062 C 458.695312 189.164062 458.425781 189.277344 458.207031 189.5 C 457.988281 189.726562 457.875 189.996094 457.875 190.296875 L 457.875 195.023438 L 455.609375 195.023438 L 455.609375 179.375 L 449.917969 179.375 C 449.605469 179.375 449.335938 179.484375 449.117188 179.707031 C 448.898438 179.925781 448.789062 180.195312 448.789062 180.511719 C 448.789062 180.824219 448.898438 181.09375 449.117188 181.3125 C 449.335938 181.535156 449.605469 181.644531 449.917969 181.644531 L 453.34375 181.644531 L 453.34375 195.023438 Z M 441.527344 189.5 C 441.304688 189.726562 441.199219 189.996094 441.199219 190.296875 L 441.199219 195.023438 L 438.929688 195.023438 L 438.929688 179.375 L 433.242188 179.375 C 432.921875 179.375 432.65625 179.484375 432.441406 179.707031 C 432.21875 179.925781 432.109375 180.195312 432.109375 180.511719 C 432.109375 180.824219 432.21875 181.09375 432.441406 181.3125 C 432.65625 181.535156 432.921875 181.644531 433.242188 181.644531 L 436.667969 181.644531 L 436.667969 195.023438 L 433.1875 195.023438 C 432.875 195.023438 432.601562 195.132812 432.382812 195.351562 C 432.167969 195.5625 432.054688 195.828125 432.054688 196.128906 C 432.054688 196.449219 432.167969 196.71875 432.382812 196.945312 C 432.601562 197.175781 432.875 197.292969 433.1875 197.292969 L 442.328125 197.292969 C 442.644531 197.292969 442.910156 197.179688 443.128906 196.960938 C 443.351562 196.742188 443.460938 196.472656 443.460938 196.160156 L 443.460938 190.296875 C 443.460938 189.984375 443.351562 189.71875 443.128906 189.496094 C 442.910156 189.273438 442.644531 189.164062 442.328125 189.164062 C 442.015625 189.164062 441.746094 189.277344 441.527344 189.5 Z M 424.570312 181.644531 L 417.667969 181.644531 L 417.667969 195.023438 L 424.570312 195.023438 Z M 424.648438 179.347656 C 425.234375 179.347656 425.738281 179.566406 426.167969 179.996094 C 426.59375 180.429688 426.808594 180.941406 426.808594 181.535156 L 426.808594 195.105469 C 426.808594 195.707031 426.59375 196.222656 426.167969 196.652344 C 425.738281 197.082031 425.226562 197.292969 424.625 197.292969 L 417.585938 197.292969 C 416.976562 197.292969 416.457031 197.082031 416.035156 196.652344 C 415.613281 196.222656 415.398438 195.707031 415.398438 195.105469 L 415.398438 181.535156 C 415.398438 180.941406 415.613281 180.429688 416.046875 179.996094 C 416.476562 179.566406 416.988281 179.347656 417.585938 179.347656 Z M 466.972656 171.492188 L 473.875 171.492188 L 473.875 158.109375 L 466.972656 158.109375 Z M 465.335938 173.121094 C 464.914062 172.691406 464.707031 172.175781 464.707031 171.574219 L 464.707031 158.003906 C 464.707031 157.410156 464.921875 156.898438 465.351562 156.464844 C 465.785156 156.035156 466.296875 155.816406 466.886719 155.816406 L 473.957031 155.816406 C 474.539062 155.816406 475.046875 156.035156 475.472656 156.464844 C 475.898438 156.898438 476.113281 157.410156 476.113281 158.003906 L 476.113281 171.574219 C 476.113281 172.175781 475.898438 172.691406 475.472656 173.121094 C 475.046875 173.550781 474.53125 173.761719 473.929688 173.761719 L 466.886719 173.761719 C 466.277344 173.761719 465.761719 173.550781 465.335938 173.121094 Z M 449.132812 171.492188 C 448.816406 171.492188 448.546875 171.601562 448.328125 171.820312 C 448.109375 172.03125 447.996094 172.292969 447.996094 172.597656 C 447.996094 172.914062 448.109375 173.1875 448.328125 173.414062 C 448.546875 173.648438 448.816406 173.761719 449.132812 173.761719 L 458.273438 173.761719 C 458.585938 173.761719 458.855469 173.648438 459.074219 173.429688 C 459.296875 173.210938 459.40625 172.941406 459.40625 172.628906 L 459.40625 166.765625 C 459.40625 166.453125 459.296875 166.1875 459.074219 165.964844 C 458.855469 165.742188 458.585938 165.632812 458.273438 165.632812 C 457.957031 165.632812 457.691406 165.746094 457.472656 165.96875 C 457.25 166.195312 457.140625 166.460938 457.140625 166.765625 L 457.140625 171.492188 L 454.875 171.492188 L 454.875 156.773438 L 462.359375 156.773438 C 463.007812 156.773438 463.539062 156.246094 463.539062 155.59375 L 463.539062 154.148438 L 452.945312 154.148438 L 452.945312 155.59375 C 452.945312 155.679688 452.980469 155.761719 453 155.84375 L 449.183594 155.84375 C 448.867188 155.84375 448.601562 155.953125 448.382812 156.175781 C 448.160156 156.394531 448.054688 156.667969 448.054688 156.980469 C 448.054688 157.292969 448.160156 157.5625 448.382812 157.78125 C 448.601562 158.003906 448.867188 158.109375 449.183594 158.109375 L 452.609375 158.109375 L 452.609375 171.492188 Z M 433.609375 171.492188 L 440.515625 171.492188 L 440.515625 158.109375 L 433.609375 158.109375 Z M 431.980469 173.121094 C 431.558594 172.691406 431.34375 172.175781 431.34375 171.574219 L 431.34375 158.003906 C 431.34375 157.410156 431.558594 156.898438 431.992188 156.464844 C 432.421875 156.035156 432.933594 155.816406 433.53125 155.816406 L 440.59375 155.816406 C 441.179688 155.816406 441.683594 156.035156 442.109375 156.464844 C 442.539062 156.898438 442.753906 157.410156 442.753906 158.003906 L 442.753906 171.574219 C 442.753906 172.175781 442.539062 172.691406 442.109375 173.121094 C 441.683594 173.550781 441.171875 173.761719 440.566406 173.761719 L 433.53125 173.761719 C 432.917969 173.761719 432.402344 173.550781 431.980469 173.121094 Z M 416.929688 171.492188 L 423.832031 171.492188 L 423.832031 158.109375 L 416.929688 158.109375 Z M 415.296875 173.121094 C 414.875 172.691406 414.664062 172.175781 414.664062 171.574219 L 414.664062 158.003906 C 414.664062 157.410156 414.878906 156.898438 415.3125 156.464844 C 415.742188 156.035156 416.253906 155.816406 416.847656 155.816406 L 423.914062 155.816406 C 424.5 155.816406 425.003906 156.035156 425.433594 156.464844 C 425.859375 156.898438 426.070312 157.410156 426.070312 158.003906 L 426.070312 171.574219 C 426.070312 172.175781 425.859375 172.691406 425.433594 173.121094 C 425.003906 173.550781 424.492188 173.761719 423.890625 173.761719 L 416.847656 173.761719 C 416.238281 173.761719 415.71875 173.550781 415.296875 173.121094 Z M 400.25 171.492188 L 407.152344 171.492188 L 407.152344 158.109375 L 400.25 158.109375 Z M 397.980469 158.003906 C 397.980469 157.410156 398.199219 156.898438 398.632812 156.464844 C 399.058594 156.035156 399.574219 155.816406 400.167969 155.816406 L 407.234375 155.816406 C 407.816406 155.816406 408.324219 156.035156 408.75 156.464844 C 409.175781 156.898438 409.394531 157.410156 409.394531 158.003906 L 409.394531 171.574219 C 409.394531 172.175781 409.175781 172.691406 408.75 173.121094 C 408.324219 173.550781 407.808594 173.761719 407.207031 173.761719 L 400.167969 173.761719 C 399.558594 173.761719 399.042969 173.550781 398.617188 173.121094 C 398.195312 172.691406 397.980469 172.175781 397.980469 171.574219 Z M 390.417969 171.492188 L 388.152344 171.492188 L 388.152344 155.84375 L 382.460938 155.84375 C 382.148438 155.84375 381.882812 155.953125 381.660156 156.175781 C 381.441406 156.394531 381.328125 156.667969 381.328125 156.980469 C 381.328125 157.292969 381.441406 157.5625 381.660156 157.78125 C 381.882812 158.003906 382.148438 158.109375 382.460938 158.109375 L 385.890625 158.109375 L 385.890625 171.492188 L 382.410156 171.492188 C 382.09375 171.492188 381.828125 171.601562 381.609375 171.820312 C 381.386719 172.03125 381.277344 172.292969 381.277344 172.597656 C 381.277344 172.914062 381.386719 173.1875 381.609375 173.414062 C 381.828125 173.648438 382.09375 173.761719 382.410156 173.761719 L 391.550781 173.761719 C 391.863281 173.761719 392.132812 173.648438 392.351562 173.429688 C 392.574219 173.210938 392.683594 172.941406 392.683594 172.628906 L 392.683594 166.765625 C 392.683594 166.453125 392.574219 166.1875 392.351562 165.964844 C 392.132812 165.742188 391.863281 165.632812 391.550781 165.632812 C 391.238281 165.632812 390.96875 165.746094 390.75 165.96875 C 390.527344 166.195312 390.417969 166.460938 390.417969 166.765625 Z M 365.726562 171.492188 C 365.414062 171.492188 365.148438 171.601562 364.925781 171.820312 C 364.707031 172.03125 364.59375 172.292969 364.59375 172.597656 C 364.59375 172.914062 364.707031 173.1875 364.925781 173.414062 C 365.148438 173.648438 365.414062 173.761719 365.726562 173.761719 L 374.871094 173.761719 C 375.183594 173.761719 375.449219 173.648438 375.675781 173.429688 C 375.894531 173.210938 376.003906 172.941406 376.003906 172.628906 L 376.003906 166.765625 C 376.003906 166.453125 375.894531 166.1875 375.675781 165.964844 C 375.449219 165.742188 375.183594 165.632812 374.871094 165.632812 C 374.554688 165.632812 374.289062 165.746094 374.070312 165.96875 C 373.847656 166.195312 373.738281 166.460938 373.738281 166.765625 L 373.738281 171.492188 L 371.472656 171.492188 L 371.472656 155.84375 L 365.78125 155.84375 C 365.46875 155.84375 365.199219 155.953125 364.980469 156.175781 C 364.761719 156.394531 364.648438 156.667969 364.648438 156.980469 C 364.648438 157.292969 364.761719 157.5625 364.980469 157.78125 C 365.199219 158.003906 365.46875 158.109375 365.78125 158.109375 L 369.207031 158.109375 L 369.207031 171.492188 Z M 347.941406 164.164062 L 347.941406 171.574219 C 347.941406 172.175781 348.152344 172.691406 348.578125 173.121094 C 349 173.550781 349.515625 173.761719 350.125 173.761719 L 357.164062 173.761719 C 357.765625 173.761719 358.28125 173.550781 358.707031 173.121094 C 359.136719 172.691406 359.351562 172.175781 359.351562 171.574219 L 359.351562 158.003906 C 359.351562 157.410156 359.136719 156.898438 358.707031 156.464844 C 358.570312 156.324219 358.421875 156.214844 358.261719 156.117188 C 357.359375 156.769531 356.464844 157.4375 355.566406 158.109375 L 357.109375 158.109375 L 357.109375 171.492188 L 350.207031 171.492188 L 350.207031 162.304688 C 349.453125 162.914062 348.695312 163.535156 347.941406 164.164062 Z M 189.195312 211.53125 L 193.15625 211.53125 L 193.15625 204.820312 L 193.777344 204.820312 L 193.777344 211.53125 L 197.335938 211.53125 C 198.4375 211.53125 199.355469 211.21875 200.0625 210.597656 C 200.796875 209.953125 201.183594 209.070312 201.183594 208.039062 C 201.183594 207.234375 200.941406 206.550781 200.484375 206.027344 C 200.917969 205.421875 201.035156 204.785156 201.035156 204.285156 C 201.035156 203.300781 200.65625 202.441406 199.941406 201.804688 C 199.234375 201.171875 198.195312 200.863281 196.765625 200.863281 L 187.847656 200.863281 L 187.847656 204.820312 L 189.195312 204.820312 Z M 183.539062 204.65625 L 182.429688 204.65625 L 182.429688 200.863281 L 187.382812 200.863281 L 187.382812 211.53125 L 183.539062 211.53125 L 183.539062 204.65625 " fill-opacity="1" fill-rule="nonzero"/><path fill="rgb(47.059631%, 30.979919%, 36.859131%)" d="M 389.890625 274.480469 L 389.890625 285.839844 L 395.378906 290.105469 C 395.378906 290.105469 376.609375 310.789062 369.824219 310.789062 C 363.082031 310.789062 344.632812 291.742188 344.632812 291.742188 L 350.878906 287.226562 L 350.878906 275.761719 C 348.183594 272.976562 346.484375 269.273438 346.285156 264.640625 L 345.785156 252.464844 C 342.148438 252.796875 336.300781 242.335938 339.433594 237.402344 C 341.207031 234.613281 343.472656 236.488281 345.230469 238.914062 L 344.597656 223.402344 C 344.359375 217.988281 348.679688 213.472656 354.089844 213.472656 L 385.566406 213.472656 C 390.976562 213.472656 395.296875 217.988281 395.058594 223.402344 L 394.257812 242.992188 C 395.449219 239.707031 398.246094 233.351562 400.820312 237.402344 C 404.132812 242.613281 397.414062 254.003906 393.878906 252.304688 L 393.371094 264.640625 C 393.199219 268.59375 391.929688 271.871094 389.890625 274.480469 Z M 283.917969 398.703125 L 252.792969 380.679688 L 239.296875 400.222656 L 239.269531 400.21875 L 233.96875 408.074219 C 228.808594 415.722656 236.789062 432.835938 245.960938 433.785156 L 328.097656 435.878906 L 328.535156 431.636719 L 304.707031 431.636719 L 303.945312 423.738281 C 303.667969 422.5 304.476562 421.292969 305.585938 421.292969 L 329.601562 421.292969 L 330.800781 409.675781 L 279.71875 404.398438 Z M 471.671875 434.523438 L 424.148438 428.707031 L 424.761719 422.996094 C 424.953125 422.132812 424.390625 421.292969 423.613281 421.292969 L 390.257812 421.292969 L 391.277344 398.21875 L 441.324219 400.445312 L 438.972656 396.097656 L 475.085938 384.160156 L 486.410156 409.011719 L 487.292969 410.855469 C 491.28125 419.179688 480.878906 434.933594 471.671875 434.523438 " fill-opacity="1" fill-rule="nonzero"/><g clip-path="url(#clip-1)"><path fill="rgb(7.839966%, 12.159729%, 20.779419%)" d="M 211.261719 403.238281 L 211.261719 406.253906 C 211.261719 406.792969 211.703125 407.234375 212.242188 407.234375 C 212.785156 407.234375 213.226562 406.792969 213.226562 406.253906 L 213.226562 403.238281 C 213.226562 402.695312 212.785156 402.253906 212.242188 402.253906 C 211.703125 402.253906 211.261719 402.695312 211.261719 403.238281 Z M 208.511719 406.253906 L 208.511719 403.238281 C 208.511719 402.695312 208.070312 402.253906 207.527344 402.253906 C 206.984375 402.253906 206.546875 402.695312 206.546875 403.238281 L 206.546875 406.253906 C 206.546875 406.792969 206.984375 407.234375 207.527344 407.234375 C 208.070312 407.234375 208.511719 406.792969 208.511719 406.253906 Z M 203.796875 406.253906 L 203.796875 403.238281 C 203.796875 402.695312 203.355469 402.253906 202.816406 402.253906 C 202.269531 402.253906 201.832031 402.695312 201.832031 403.238281 L 201.832031 406.253906 C 201.832031 406.792969 202.269531 407.234375 202.816406 407.234375 C 203.355469 407.234375 203.796875 406.792969 203.796875 406.253906 Z M 199.078125 406.253906 L 199.078125 403.238281 C 199.078125 402.695312 198.640625 402.253906 198.097656 402.253906 C 197.554688 402.253906 197.117188 402.695312 197.117188 403.238281 L 197.117188 406.253906 C 197.117188 406.792969 197.554688 407.234375 198.097656 407.234375 C 198.640625 407.234375 199.078125 406.792969 199.078125 406.253906 Z M 194.367188 406.253906 L 194.367188 403.238281 C 194.367188 402.695312 193.929688 402.253906 193.382812 402.253906 C 192.84375 402.253906 192.402344 402.695312 192.402344 403.238281 L 192.402344 406.253906 C 192.402344 406.792969 192.84375 407.234375 193.382812 407.234375 C 193.929688 407.234375 194.367188 406.792969 194.367188 406.253906 Z M 189.652344 406.253906 L 189.652344 403.238281 C 189.652344 402.695312 189.210938 402.253906 188.667969 402.253906 C 188.125 402.253906 187.6875 402.695312 187.6875 403.238281 L 187.6875 406.253906 C 187.6875 406.792969 188.125 407.234375 188.667969 407.234375 C 189.210938 407.234375 189.652344 406.792969 189.652344 406.253906 Z M 184.9375 406.253906 L 184.9375 403.238281 C 184.9375 402.695312 184.496094 402.253906 183.957031 402.253906 C 183.410156 402.253906 182.972656 402.695312 182.972656 403.238281 L 182.972656 406.253906 C 182.972656 406.792969 183.410156 407.234375 183.957031 407.234375 C 184.496094 407.234375 184.9375 406.792969 184.9375 406.253906 Z M 180.21875 403.238281 C 180.21875 402.695312 179.78125 402.253906 179.238281 402.253906 C 178.699219 402.253906 178.257812 402.695312 178.257812 403.238281 L 178.257812 406.253906 C 178.257812 406.792969 178.699219 407.234375 179.238281 407.234375 C 179.78125 407.234375 180.21875 406.792969 180.21875 406.253906 Z M 180.902344 411.898438 L 209.476562 411.898438 C 210.023438 411.898438 210.460938 411.457031 210.460938 410.914062 C 210.460938 410.367188 210.023438 409.929688 209.476562 409.929688 L 180.902344 409.929688 C 180.355469 409.929688 179.921875 410.367188 179.921875 410.914062 C 179.921875 411.457031 180.355469 411.898438 180.902344 411.898438 Z M 383.0625 236.183594 C 381.277344 236.171875 379.527344 236.625 378.125 237.539062 C 377.667969 237.839844 377.542969 238.449219 377.839844 238.90625 C 378.132812 239.355469 378.742188 239.488281 379.199219 239.1875 C 380.253906 238.496094 381.648438 238.101562 383.019531 238.148438 C 384.386719 238.179688 385.753906 238.621094 386.773438 239.359375 C 386.945312 239.488281 387.148438 239.546875 387.347656 239.546875 C 387.652344 239.546875 387.949219 239.40625 388.144531 239.144531 C 388.460938 238.703125 388.363281 238.089844 387.925781 237.773438 C 386.574219 236.785156 384.847656 236.222656 383.0625 236.183594 Z M 358.632812 236.390625 C 356.847656 236.28125 355.078125 236.714844 353.625 237.582031 C 353.15625 237.859375 353.007812 238.460938 353.285156 238.925781 C 353.558594 239.394531 354.160156 239.546875 354.628906 239.269531 C 355.734375 238.609375 357.148438 238.285156 358.519531 238.351562 C 359.878906 238.429688 361.214844 238.917969 362.183594 239.6875 C 362.363281 239.832031 362.578125 239.898438 362.792969 239.898438 C 363.078125 239.898438 363.363281 239.773438 363.558594 239.53125 C 363.898438 239.105469 363.828125 238.488281 363.40625 238.148438 C 362.109375 237.113281 360.414062 236.488281 358.632812 236.390625 Z M 361.546875 269.882812 C 361.460938 270.417969 361.820312 270.921875 362.355469 271.015625 C 362.601562 271.054688 366.496094 271.683594 370.890625 271.683594 C 373.183594 271.683594 375.609375 271.511719 377.726562 271 C 378.253906 270.871094 378.578125 270.339844 378.449219 269.8125 C 378.320312 269.285156 377.789062 268.957031 377.265625 269.089844 C 371.472656 270.496094 362.761719 269.089844 362.675781 269.074219 C 362.132812 268.976562 361.632812 269.347656 361.546875 269.882812 Z M 257.714844 370.019531 C 257.929688 370.121094 279.5 379.90625 285.816406 386.609375 C 286.007812 386.8125 286.269531 386.917969 286.527344 386.917969 C 286.769531 386.917969 287.015625 386.832031 287.207031 386.648438 C 287.597656 386.277344 287.617188 385.65625 287.246094 385.261719 C 280.671875 378.277344 259.421875 368.636719 258.523438 368.230469 C 258.023438 368.003906 257.445312 368.230469 257.222656 368.71875 C 257 369.214844 257.21875 369.800781 257.714844 370.019531 Z M 436.902344 388.371094 C 437.140625 388.371094 437.382812 388.285156 437.574219 388.109375 C 448.136719 378.234375 469.828125 373.671875 470.042969 373.625 C 470.574219 373.515625 470.917969 372.996094 470.808594 372.464844 C 470.699219 371.929688 470.175781 371.589844 469.648438 371.699219 C 468.738281 371.886719 447.203125 376.414062 436.230469 386.671875 C 435.835938 387.039062 435.8125 387.664062 436.183594 388.0625 C 436.375 388.269531 436.636719 388.371094 436.902344 388.371094 Z M 393.835938 229.945312 C 393.933594 227.886719 392.011719 226.328125 390.023438 226.839844 L 371.4375 231.652344 C 371.4375 231.652344 359.515625 228.738281 351.765625 226.875 C 348.78125 226.160156 345.925781 228.441406 345.953125 231.511719 L 346.019531 239.808594 L 346.644531 241.371094 C 347.046875 240.808594 347.707031 240.441406 348.453125 240.441406 L 366.082031 240.441406 C 367.308594 240.441406 368.304688 241.441406 368.304688 242.667969 L 368.304688 242.785156 L 373.21875 242.785156 L 373.21875 242.449219 C 373.21875 241.34375 374.117188 240.441406 375.21875 240.441406 L 393.292969 240.441406 C 393.3125 240.441406 393.324219 240.449219 393.34375 240.449219 Z M 393.332031 245.882812 C 393.3125 245.964844 393.285156 246.050781 393.269531 246.132812 L 393.074219 246.230469 L 393.25 242.449219 L 375.21875 242.410156 L 375.183594 253.328125 L 393.292969 253.367188 L 393.332031 253.328125 Z M 366.339844 242.667969 C 366.339844 242.527344 366.226562 242.410156 366.082031 242.410156 L 348.453125 242.410156 C 348.308594 242.410156 348.191406 242.527344 348.191406 242.667969 L 348.191406 253.105469 C 348.191406 253.25 348.308594 253.367188 348.453125 253.367188 L 366.082031 253.367188 C 366.226562 253.367188 366.339844 253.25 366.339844 253.105469 Z M 398.816406 204.109375 C 403.042969 210.890625 403.53125 221.894531 399.757812 236.300781 C 399.359375 236.078125 398.964844 236.058594 398.570312 236.1875 L 395.296875 244.410156 L 395.296875 253.328125 C 395.296875 254.433594 394.398438 255.332031 393.292969 255.332031 L 375.21875 255.332031 C 374.117188 255.332031 373.21875 254.433594 373.21875 253.328125 L 373.21875 244.75 L 368.304688 244.75 L 368.304688 253.105469 C 368.304688 254.332031 367.308594 255.332031 366.082031 255.332031 L 348.453125 255.332031 C 347.226562 255.332031 346.230469 254.332031 346.230469 253.105469 L 346.230469 245.070312 C 346.046875 244.964844 345.894531 244.796875 345.8125 244.585938 L 342.503906 236.289062 C 341.820312 235.957031 341.136719 235.902344 340.488281 236.296875 C 337.859375 228.597656 335.46875 217.90625 338.542969 209.796875 C 349.449219 181.03125 383.035156 199.683594 383.035156 199.683594 C 383.035156 199.683594 393.855469 196.152344 398.816406 204.109375 Z M 537.171875 112.914062 C 536.871094 113.371094 537 113.980469 537.453125 114.277344 C 537.617188 114.390625 537.808594 114.441406 537.992188 114.441406 C 538.3125 114.441406 538.625 114.285156 538.8125 114 C 554.230469 90.535156 539.40625 74.5625 539.257812 74.402344 C 538.882812 74.011719 538.261719 73.996094 537.867188 74.371094 C 537.476562 74.75 537.464844 75.371094 537.839844 75.761719 C 537.980469 75.90625 551.738281 90.746094 537.171875 112.914062 Z M 530.859375 111.292969 C 531.027344 111.40625 531.214844 111.457031 531.398438 111.457031 C 531.71875 111.457031 532.03125 111.300781 532.21875 111.011719 C 544.3125 92.613281 532.660156 80.058594 532.539062 79.933594 C 532.164062 79.539062 531.550781 79.527344 531.15625 79.902344 C 530.761719 80.273438 530.75 80.898438 531.121094 81.292969 C 531.558594 81.753906 541.789062 92.878906 530.578125 109.933594 C 530.28125 110.386719 530.40625 111 530.859375 111.292969 Z M 524.335938 105.902344 C 524.503906 106.015625 524.691406 106.066406 524.875 106.066406 C 525.195312 106.066406 525.507812 105.910156 525.695312 105.621094 C 533.578125 93.632812 525.941406 85.40625 525.859375 85.324219 C 525.484375 84.933594 524.871094 84.917969 524.480469 85.292969 C 524.085938 85.664062 524.074219 86.285156 524.441406 86.679688 C 524.714844 86.96875 531.050781 93.898438 524.058594 104.542969 C 523.757812 104.996094 523.886719 105.605469 524.335938 105.902344 Z M 496.722656 115.128906 C 496.910156 115.128906 497.09375 115.078125 497.265625 114.96875 C 497.714844 114.671875 497.839844 114.0625 497.542969 113.605469 C 483.007812 91.492188 496.304688 77.054688 496.878906 76.449219 C 497.25 76.054688 497.234375 75.433594 496.839844 75.0625 C 496.453125 74.6875 495.832031 74.703125 495.457031 75.089844 C 495.304688 75.25 480.480469 91.222656 495.898438 114.6875 C 496.089844 114.972656 496.402344 115.128906 496.722656 115.128906 Z M 502.496094 111.703125 C 502.683594 111.992188 502.996094 112.148438 503.316406 112.148438 C 503.5 112.148438 503.6875 112.09375 503.851562 111.984375 C 504.308594 111.683594 504.433594 111.078125 504.132812 110.621094 C 492.929688 93.570312 503.148438 82.449219 503.59375 81.980469 C 503.964844 81.589844 503.953125 80.96875 503.5625 80.589844 C 503.167969 80.214844 502.546875 80.230469 502.171875 80.625 C 502.054688 80.746094 490.398438 93.304688 502.496094 111.703125 Z M 509.835938 106.753906 C 510.019531 106.753906 510.207031 106.703125 510.378906 106.59375 C 510.828125 106.292969 510.953125 105.6875 510.65625 105.230469 C 503.660156 94.589844 509.996094 87.664062 510.273438 87.375 C 510.644531 86.980469 510.628906 86.359375 510.242188 85.984375 C 509.847656 85.609375 509.226562 85.621094 508.851562 86.015625 C 508.773438 86.09375 501.136719 94.320312 509.019531 106.3125 C 509.207031 106.601562 509.519531 106.753906 509.835938 106.753906 Z M 220.878906 397.289062 L 171.519531 397.289062 L 175.132812 400.933594 L 217.269531 400.933594 Z M 222.808594 340.796875 C 222.808594 338.082031 220.613281 335.882812 217.898438 335.882812 C 215.1875 335.882812 212.992188 338.082031 212.992188 340.796875 L 212.992188 357.234375 L 206.554688 357.234375 L 206.554688 331.269531 C 206.554688 327.570312 203.5625 324.570312 199.867188 324.570312 L 193.425781 324.570312 C 189.726562 324.570312 186.734375 327.570312 186.734375 331.269531 L 186.734375 367.910156 L 181.546875 367.910156 L 181.546875 351.472656 C 181.546875 348.757812 179.351562 346.558594 176.636719 346.558594 C 173.929688 346.558594 171.730469 348.757812 171.730469 351.472656 L 171.730469 368.292969 C 171.730469 373.503906 175.964844 377.742188 181.167969 377.742188 L 186.734375 377.742188 L 186.734375 392.242188 L 206.554688 392.242188 L 206.554688 367.066406 L 213.371094 367.066406 C 218.574219 367.066406 222.808594 362.828125 222.808594 357.617188 Z M 542.316406 395.3125 L 542.316406 415.078125 L 545.292969 415.078125 C 545.800781 415.078125 546.257812 414.757812 546.425781 414.277344 L 549.234375 406.339844 C 550.390625 403.085938 550.566406 399.589844 549.75 396.230469 C 549.617188 395.691406 549.140625 395.3125 548.582031 395.3125 Z M 542.316406 390.398438 L 548.582031 390.398438 C 551.40625 390.398438 553.847656 392.320312 554.519531 395.066406 C 555.5625 399.359375 555.335938 403.824219 553.863281 407.984375 L 551.054688 415.917969 C 550.1875 418.355469 547.875 419.992188 545.292969 419.992188 L 542.316406 419.992188 L 542.316406 430.691406 C 542.316406 432.632812 540.742188 434.203125 538.808594 434.203125 L 510 434.203125 C 508.0625 434.203125 506.492188 432.632812 506.492188 430.691406 L 506.492188 387.675781 L 542.316406 387.675781 Z M 380.722656 380.789062 C 380.722656 374.890625 375.085938 370.105469 368.132812 370.105469 C 361.179688 370.105469 355.542969 374.890625 355.542969 380.789062 C 355.542969 386.691406 361.179688 391.472656 368.132812 391.472656 C 375.085938 391.472656 380.722656 386.691406 380.722656 380.789062 Z M 425.265625 333.71875 C 425.679688 322.4375 429.878906 313.761719 430.070312 313.375 C 430.308594 312.886719 430.898438 312.683594 431.386719 312.921875 C 431.871094 313.164062 432.074219 313.753906 431.835938 314.242188 C 431.789062 314.332031 427.660156 322.882812 427.230469 333.71875 L 430.925781 333.71875 C 433.5 333.71875 435.566406 335.855469 435.480469 338.433594 L 432.769531 420.542969 C 432.6875 423.003906 430.671875 424.953125 428.214844 424.953125 L 304.335938 424.953125 C 301.878906 424.953125 299.867188 423.003906 299.78125 420.542969 L 297.070312 338.433594 C 296.988281 335.855469 299.050781 333.71875 301.628906 333.71875 L 308.453125 333.71875 C 308.707031 328.5 305.128906 320.617188 305.089844 320.539062 C 304.863281 320.042969 305.078125 319.460938 305.570312 319.234375 C 306.066406 319.007812 306.644531 319.222656 306.875 319.714844 C 307.03125 320.066406 310.644531 328.019531 310.417969 333.71875 L 364.808594 333.71875 L 364.5625 316.003906 C 364.535156 314.261719 365.472656 312.652344 366.996094 311.808594 L 368.679688 310.882812 L 357.910156 305.679688 C 355.921875 304.667969 354.175781 303.574219 352.683594 305.070312 L 347.578125 310.207031 C 346.621094 311.167969 344.984375 310.511719 344.957031 309.152344 L 344.601562 291.917969 C 344.242188 288.90625 350.878906 275.859375 350.878906 275.859375 C 350.878906 275.859375 354.097656 297.152344 369.144531 310.625 L 372.40625 308.828125 C 387.082031 296.929688 389.890625 274.515625 389.890625 274.515625 C 389.890625 274.515625 395.710938 287.09375 395.378906 290.105469 L 396.347656 305.550781 C 396.433594 306.921875 394.890625 307.777344 393.78125 306.976562 L 392.519531 306.070312 C 390.109375 304.332031 386.535156 303.929688 383.5625 305.058594 L 374.835938 308.628906 L 374.835938 333.71875 Z M 602 434.421875 L 433.078125 434.421875 L 433.851562 428.167969 C 434.074219 427.304688 433.425781 426.464844 432.535156 426.464844 L 296.746094 426.464844 C 295.46875 426.464844 294.539062 427.671875 294.859375 428.910156 L 295.46875 434.421875 L 210.53125 434.421875 L 211.796875 431.449219 L 179.394531 431.449219 L 180.664062 434.421875 L 151.863281 434.421875 C 148.671875 434.421875 146.085938 437.011719 146.085938 440.207031 L 146.085938 448.039062 C 146.085938 451.234375 148.671875 453.824219 151.863281 453.824219 L 184.429688 453.824219 L 184.429688 481.167969 L 568.179688 481.167969 L 568.179688 453.824219 L 602 453.824219 C 605.1875 453.824219 607.773438 451.234375 607.773438 448.039062 L 607.773438 440.207031 C 607.773438 437.011719 605.1875 434.421875 602 434.421875 Z M 373.285156 262.328125 C 375.414062 261.554688 372.363281 255.570312 370.792969 252.773438 C 370.453125 252.164062 369.613281 252.21875 369.359375 252.867188 C 368.3125 255.578125 366.253906 261.046875 366.273438 262.121094 C 366.292969 263.570312 370.503906 263.34375 373.285156 262.328125 Z M 359.300781 243.855469 C 358.292969 243.855469 357.480469 245.105469 357.480469 246.648438 C 357.480469 248.191406 358.292969 249.441406 359.300781 249.441406 C 360.304688 249.441406 361.121094 248.191406 361.121094 246.648438 C 361.121094 245.105469 360.304688 243.855469 359.300781 243.855469 Z M 382.195312 243.855469 C 381.1875 243.855469 380.371094 245.105469 380.371094 246.648438 C 380.371094 248.191406 381.1875 249.441406 382.195312 249.441406 C 383.199219 249.441406 384.011719 248.191406 384.011719 246.648438 C 384.011719 245.105469 383.199219 243.855469 382.195312 243.855469 Z M 369.105469 294.277344 C 372.542969 295.324219 386.910156 280.871094 389.632812 274.820312 C 385.8125 279.453125 379.449219 281.84375 372.265625 281.84375 L 367.390625 281.84375 C 361.125 281.84375 355.488281 280.027344 351.609375 276.492188 C 356.46875 282.199219 366.28125 293.410156 369.105469 294.277344 Z M 348.84375 273.203125 C 348.84375 273.203125 348.867188 273.230469 348.90625 273.277344 C 348.886719 273.253906 348.875 273.226562 348.859375 273.203125 Z M 490.953125 141.363281 C 490.953125 142.808594 492.125 143.984375 493.570312 143.984375 C 495.015625 143.984375 496.1875 142.808594 496.1875 141.363281 C 496.1875 139.914062 495.015625 138.738281 493.570312 138.738281 C 492.125 138.738281 490.953125 139.914062 490.953125 141.363281 Z M 501.167969 141.363281 C 501.167969 142.808594 502.34375 143.984375 503.785156 143.984375 C 505.234375 143.984375 506.40625 142.808594 506.40625 141.363281 C 506.40625 139.914062 505.234375 138.738281 503.785156 138.738281 C 502.34375 138.738281 501.167969 139.914062 501.167969 141.363281 Z M 511.550781 141.363281 C 511.550781 142.808594 512.726562 143.984375 514.171875 143.984375 C 515.617188 143.984375 516.789062 142.808594 516.789062 141.363281 C 516.789062 139.914062 515.617188 138.738281 514.171875 138.738281 C 512.726562 138.738281 511.550781 139.914062 511.550781 141.363281 Z M 464.078125 141.363281 C 464.078125 139.914062 462.90625 138.738281 461.460938 138.738281 C 460.015625 138.738281 458.839844 139.914062 458.839844 141.363281 C 458.839844 142.808594 460.015625 143.984375 461.460938 143.984375 C 462.90625 143.984375 464.078125 142.808594 464.078125 141.363281 Z M 448.53125 148.59375 L 446.023438 148.59375 L 446.023438 133.417969 L 448.53125 133.417969 L 448.53125 129.753906 C 448.53125 129.101562 449.058594 128.574219 449.710938 128.574219 L 463.660156 128.574219 L 489.496094 122.121094 C 490.398438 121.894531 491.3125 122.441406 491.535156 123.34375 L 491.96875 125.074219 C 492.191406 125.976562 491.644531 126.890625 490.742188 127.117188 L 484.914062 128.574219 L 514.21875 128.574219 L 514.21875 93.726562 C 514.21875 92.792969 514.972656 92.039062 515.898438 92.039062 L 517.679688 92.039062 C 518.613281 92.039062 519.367188 92.792969 519.367188 93.726562 L 519.367188 128.574219 L 528.523438 128.574219 C 529.171875 128.574219 529.703125 129.101562 529.703125 129.753906 L 529.703125 133.417969 L 532.023438 133.417969 L 532.023438 148.59375 L 529.703125 148.59375 L 529.703125 152.96875 C 529.703125 153.621094 529.171875 154.148438 528.523438 154.148438 L 449.710938 154.148438 C 449.058594 154.148438 448.53125 153.621094 448.53125 152.96875 Z M 300.265625 150.257812 L 389.46875 150.257812 L 389.46875 97.511719 L 300.265625 97.511719 Z M 391.796875 123.882812 C 391.796875 125.410156 393.039062 126.652344 394.5625 126.652344 C 396.089844 126.652344 397.328125 125.410156 397.328125 123.882812 C 397.328125 122.355469 396.089844 121.117188 394.5625 121.117188 C 393.039062 121.117188 391.796875 122.355469 391.796875 123.882812 Z M 289.109375 150.269531 L 289.109375 97.496094 C 289.109375 94.441406 291.585938 91.96875 294.636719 91.96875 L 395.152344 91.96875 C 398.203125 91.96875 400.671875 94.441406 400.671875 97.496094 L 400.671875 150.269531 C 400.671875 153.324219 398.203125 155.800781 395.152344 155.800781 L 294.636719 155.800781 C 291.585938 155.800781 289.109375 153.324219 289.109375 150.269531 Z M 158.808594 217.203125 L 158.808594 218.871094 L 160.472656 218.871094 L 160.472656 217.203125 Z M 163.597656 217.203125 L 163.597656 218.871094 L 165.261719 218.871094 L 165.261719 217.203125 Z M 200.203125 208.039062 C 200.203125 207.101562 199.777344 206.464844 198.933594 206.128906 C 199.679688 205.664062 200.054688 205.050781 200.054688 204.285156 C 200.054688 203.578125 199.796875 202.996094 199.285156 202.535156 C 198.773438 202.074219 197.933594 201.847656 196.765625 201.847656 L 194.761719 201.847656 L 194.761719 210.550781 L 197.335938 210.550781 C 198.199219 210.550781 198.890625 210.320312 199.414062 209.855469 C 199.941406 209.398438 200.203125 208.792969 200.203125 208.039062 Z M 193.535156 201.847656 L 188.828125 201.847656 L 188.828125 203.832031 L 190.179688 203.832031 L 190.179688 210.550781 L 192.175781 210.550781 L 192.175781 203.832031 L 193.535156 203.832031 Z M 186.398438 201.847656 L 183.410156 201.847656 L 183.410156 203.675781 L 184.519531 203.675781 L 184.519531 210.550781 L 186.398438 210.550781 Z M 226.445312 267.238281 L 218.515625 267.238281 C 218.609375 267.386719 218.679688 267.554688 218.679688 267.746094 L 218.679688 280.089844 C 218.679688 283.097656 217.5 285.910156 215.359375 288.011719 C 213.269531 290.074219 210.515625 291.199219 207.589844 291.199219 C 207.523438 291.199219 207.457031 291.195312 207.390625 291.195312 L 172.390625 290.589844 C 166.476562 290.488281 161.6875 285.769531 161.492188 279.847656 L 161.238281 236.160156 L 157.691406 236.160156 C 157.074219 236.160156 156.574219 235.660156 156.574219 235.042969 L 156.574219 222.179688 L 161.691406 222.179688 L 161.691406 217.203125 L 162.644531 217.203125 L 162.644531 222.179688 L 167.761719 222.179688 L 167.761719 235.042969 C 167.761719 235.660156 167.261719 236.160156 166.648438 236.160156 L 163.199219 236.160156 L 163.457031 279.808594 C 163.613281 284.65625 167.554688 288.539062 172.421875 288.621094 L 207.425781 289.234375 C 209.878906 289.265625 212.222656 288.34375 213.984375 286.609375 C 215.742188 284.878906 216.710938 282.5625 216.710938 280.089844 L 216.710938 267.746094 C 216.710938 267.554688 216.785156 267.386719 216.875 267.238281 L 180.429688 267.238281 C 178.542969 267.238281 177.011719 265.707031 177.011719 263.8125 L 177.011719 200.742188 C 177.011719 198.851562 178.542969 197.320312 180.429688 197.320312 L 226.445312 197.320312 C 228.335938 197.320312 229.867188 198.851562 229.867188 200.742188 L 229.867188 263.8125 C 229.867188 265.707031 228.335938 267.238281 226.445312 267.238281 Z M 196.898438 206.972656 L 196.730469 206.972656 L 196.730469 208.855469 C 197.234375 208.847656 197.605469 208.769531 197.855469 208.621094 C 198.105469 208.476562 198.226562 208.238281 198.226562 207.902344 C 198.226562 207.28125 197.785156 206.972656 196.898438 206.972656 Z M 198.054688 204.476562 C 198.054688 204.121094 197.945312 203.875 197.738281 203.738281 C 197.527344 203.597656 197.191406 203.527344 196.730469 203.515625 L 196.730469 205.394531 C 197.613281 205.371094 198.054688 205.066406 198.054688 204.476562 Z M 164.660156 153.816406 C 165.347656 154.28125 166.195312 154.425781 166.996094 154.210938 L 168.59375 153.785156 C 168.546875 153.6875 168.503906 153.59375 168.472656 153.484375 L 157.636719 114.964844 C 157.617188 114.894531 157.613281 114.824219 157.601562 114.757812 L 155.949219 115.296875 C 155.414062 115.472656 154.9375 115.792969 154.597656 116.246094 C 153.183594 118.109375 150.160156 123.890625 153.496094 136.601562 C 156.273438 147.160156 162.15625 152.121094 164.660156 153.816406 Z M 178.429688 150.679688 C 178.472656 150.832031 178.496094 150.980469 178.507812 151.128906 L 179.097656 150.972656 C 180.636719 150.558594 181.535156 148.964844 181.09375 147.433594 L 171.261719 113.382812 C 170.8125 111.835938 169.175781 110.964844 167.648438 111.46875 L 167.324219 111.574219 C 167.433594 111.753906 167.53125 111.945312 167.59375 112.152344 Z M 226.011719 154.808594 L 227.605469 155.234375 C 228.40625 155.445312 229.257812 155.300781 229.941406 154.835938 C 232.445312 153.140625 238.332031 148.183594 241.105469 137.625 C 244.445312 124.914062 241.421875 119.132812 240.007812 117.265625 C 239.664062 116.816406 239.191406 116.496094 238.652344 116.316406 L 237 115.78125 C 236.988281 115.847656 236.984375 115.917969 236.964844 115.984375 L 226.128906 154.511719 C 226.097656 154.617188 226.054688 154.710938 226.011719 154.808594 Z M 213.511719 148.453125 L 223.34375 114.402344 C 223.789062 112.859375 225.425781 111.992188 226.957031 112.488281 L 227.277344 112.59375 C 227.167969 112.773438 227.070312 112.964844 227.011719 113.179688 L 216.171875 151.699219 C 216.132812 151.851562 216.105469 152.003906 216.097656 152.152344 L 215.503906 151.992188 C 213.96875 151.582031 213.066406 149.984375 213.511719 148.453125 " fill-opacity="1" fill-rule="nonzero"/></g></svg>