<?xml version="1.0" encoding="UTF-8"?><svg xmlns="http://www.w3.org/2000/svg" xmlns:xlink="http://www.w3.org/1999/xlink" contentScriptType="text/ecmascript" width="375" zoomAndPan="magnify" contentStyleType="text/css" viewBox="0 0 375 374.999991" height="374.999991" preserveAspectRatio="xMidYMid meet" version="1.0"><defs><clipPath id="clip-0"><path d="M 31.765625 7.71875 L 343 7.71875 L 343 366.96875 L 31.765625 366.96875 Z M 31.765625 7.71875 " clip-rule="nonzero"/></clipPath><clipPath id="clip-1"><path d="M 183.90625 146.070312 L 342.90625 146.070312 L 342.90625 305.070312 L 183.90625 305.070312 Z M 183.90625 146.070312 " clip-rule="nonzero"/></clipPath><clipPath id="clip-2"><path d="M 229 182 L 342.90625 182 L 342.90625 304 L 229 304 Z M 229 182 " clip-rule="nonzero"/></clipPath><clipPath id="clip-3"><path d="M 37 62 L 198 62 L 198 223 L 37 223 Z M 37 62 " clip-rule="nonzero"/></clipPath><clipPath id="clip-4"><path d="M 43.441406 57.015625 L 202.804688 68.152344 L 191.667969 227.515625 L 32.304688 216.378906 Z M 43.441406 57.015625 " clip-rule="nonzero"/></clipPath><clipPath id="clip-5"><path d="M 43.441406 57.015625 L 202.804688 68.152344 L 191.667969 227.515625 L 32.304688 216.378906 Z M 43.441406 57.015625 " clip-rule="nonzero"/></clipPath><clipPath id="clip-6"><path d="M 91 106 L 194 106 L 194 222 L 91 222 Z M 91 106 " clip-rule="nonzero"/></clipPath><clipPath id="clip-7"><path d="M 43.441406 57.015625 L 202.804688 68.152344 L 191.667969 227.515625 L 32.304688 216.378906 Z M 43.441406 57.015625 " clip-rule="nonzero"/></clipPath><clipPath id="clip-8"><path d="M 43.441406 57.015625 L 202.804688 68.152344 L 191.667969 227.515625 L 32.304688 216.378906 Z M 43.441406 57.015625 " clip-rule="nonzero"/></clipPath><clipPath id="clip-9"><path d="M 82 99 L 154 99 L 154 186 L 82 186 Z M 82 99 " clip-rule="nonzero"/></clipPath><clipPath id="clip-10"><path d="M 43.441406 57.015625 L 202.804688 68.152344 L 191.667969 227.515625 L 32.304688 216.378906 Z M 43.441406 57.015625 " clip-rule="nonzero"/></clipPath><clipPath id="clip-11"><path d="M 43.441406 57.015625 L 202.804688 68.152344 L 191.667969 227.515625 L 32.304688 216.378906 Z M 43.441406 57.015625 " clip-rule="nonzero"/></clipPath><clipPath id="clip-12"><path d="M 114 99 L 154 99 L 154 186 L 114 186 Z M 114 99 " clip-rule="nonzero"/></clipPath><clipPath id="clip-13"><path d="M 43.441406 57.015625 L 202.804688 68.152344 L 191.667969 227.515625 L 32.304688 216.378906 Z M 43.441406 57.015625 " clip-rule="nonzero"/></clipPath><clipPath id="clip-14"><path d="M 43.441406 57.015625 L 202.804688 68.152344 L 191.667969 227.515625 L 32.304688 216.378906 Z M 43.441406 57.015625 " clip-rule="nonzero"/></clipPath></defs><g clip-path="url(#clip-0)"><path fill="rgb(8.628845%, 12.548828%, 20.779419%)" d="M 342.976562 277.15625 L 187.390625 366.96875 L 31.804688 277.15625 L 31.804688 97.53125 L 187.390625 7.71875 L 342.976562 97.53125 L 342.976562 277.15625 " fill-opacity="1" fill-rule="nonzero"/></g><g clip-path="url(#clip-1)"><path fill="rgb(100%, 23.919678%, 34.118652%)" d="M 342.90625 225.570312 C 342.90625 269.480469 307.3125 305.070312 263.40625 305.070312 C 219.5 305.070312 183.90625 269.480469 183.90625 225.570312 C 183.90625 181.664062 219.5 146.070312 263.40625 146.070312 C 307.3125 146.070312 342.90625 181.664062 342.90625 225.570312 Z M 342.90625 225.570312 " fill-opacity="1" fill-rule="nonzero"/></g><g clip-path="url(#clip-2)"><path fill="rgb(25.878906%, 25.878906%, 25.878906%)" d="M 342.824219 229.058594 L 296.570312 182.800781 L 284.21875 189.792969 L 282.042969 237.007812 C 282.042969 246.089844 274.644531 249.992188 265.769531 250.824219 L 243.601562 229.289062 L 229.242188 236.308594 C 229.242188 246.898438 235.640625 257.5625 235.640625 257.5625 L 281.214844 303.066406 C 315.453125 295.230469 341.261719 265.289062 342.824219 229.058594 Z M 342.824219 229.058594 " fill-opacity="1" fill-rule="nonzero"/></g><path fill="rgb(100%, 79.219055%, 0%)" d="M 296.570312 182.800781 L 296.570312 232.851562 C 296.570312 250.132812 284.152344 264.570312 267.769531 267.707031 C 265.601562 268.125 263.363281 268.34375 261.078125 268.34375 C 258.789062 268.34375 256.554688 268.125 254.386719 267.707031 C 238.003906 264.570312 225.589844 250.132812 225.589844 232.851562 L 225.589844 229.289062 L 243.601562 229.289062 L 243.601562 232.851562 C 243.601562 242.488281 251.441406 250.332031 261.078125 250.332031 C 270.71875 250.332031 278.558594 242.488281 278.558594 232.851562 L 278.558594 182.800781 Z M 296.570312 182.800781 " fill-opacity="1" fill-rule="nonzero"/><path fill="rgb(100%, 100%, 100%)" d="M 296.570312 182.804688 L 296.570312 232.851562 C 296.570312 250.136719 284.152344 264.570312 267.769531 267.707031 C 266.34375 267.980469 264.886719 268.171875 263.40625 268.261719 L 263.40625 250.171875 C 271.949219 249.035156 278.558594 241.703125 278.558594 232.851562 L 278.558594 182.804688 Z M 296.570312 182.804688 " fill-opacity="1" fill-rule="nonzero"/><g clip-path="url(#clip-3)"><g clip-path="url(#clip-4)"><g clip-path="url(#clip-5)"><path fill="rgb(0%, 84.309387%, 28.239441%)" d="M 197.234375 147.835938 C 194.160156 191.839844 155.992188 225.023438 111.984375 221.945312 C 67.980469 218.871094 34.796875 180.703125 37.875 136.699219 C 40.949219 92.691406 79.117188 59.511719 123.121094 62.585938 C 167.128906 65.660156 200.308594 103.828125 197.234375 147.835938 Z M 197.234375 147.835938 " fill-opacity="1" fill-rule="nonzero"/></g></g></g><g clip-path="url(#clip-6)"><g clip-path="url(#clip-7)"><g clip-path="url(#clip-8)"><path fill="rgb(26.269531%, 26.269531%, 26.269531%)" d="M 193.953125 165.628906 L 147.609375 112.316406 C 142.464844 105.230469 113.773438 106.25 113.773438 106.25 C 87.574219 115.304688 91.65625 176.355469 91.65625 176.355469 L 130.546875 221.089844 C 160.410156 216.195312 185.121094 194.597656 193.953125 165.628906 Z M 193.953125 165.628906 " fill-opacity="1" fill-rule="nonzero"/></g></g></g><g clip-path="url(#clip-9)"><g clip-path="url(#clip-10)"><g clip-path="url(#clip-11)"><path fill="rgb(100%, 100%, 100%)" d="M 133.390625 159.875 C 131.285156 165.042969 126.03125 168.523438 120.171875 168.117188 L 111.96875 167.542969 C 104.667969 167.03125 99.140625 160.675781 99.648438 153.371094 L 101.367188 128.777344 C 101.878906 121.472656 108.238281 115.949219 115.539062 116.457031 L 123.742188 117.03125 C 129.601562 117.441406 134.320312 121.621094 135.6875 127.027344 L 153.382812 128.265625 C 152.40625 113.21875 140.402344 100.796875 124.949219 99.714844 L 116.75 99.144531 C 99.898438 97.964844 85.230469 110.714844 84.050781 127.566406 L 82.332031 152.164062 C 81.15625 169.015625 93.90625 183.679688 110.757812 184.859375 L 118.960938 185.429688 C 134.410156 186.511719 148.027344 175.878906 151.089844 161.113281 Z M 133.390625 159.875 " fill-opacity="1" fill-rule="nonzero"/></g></g></g><g clip-path="url(#clip-12)"><g clip-path="url(#clip-13)"><g clip-path="url(#clip-14)"><path fill="rgb(100%, 79.219055%, 0%)" d="M 135.6875 127.027344 L 153.386719 128.265625 C 152.40625 113.21875 140.402344 100.796875 124.949219 99.71875 L 120.550781 99.410156 L 119.339844 116.722656 L 123.742188 117.03125 C 129.601562 117.441406 134.320312 121.617188 135.6875 127.027344 Z M 120.171875 168.117188 L 115.769531 167.808594 L 114.558594 185.121094 L 118.960938 185.429688 C 134.410156 186.507812 148.027344 175.878906 151.089844 161.113281 L 133.390625 159.875 C 131.285156 165.042969 126.03125 168.523438 120.171875 168.117188 Z M 120.171875 168.117188 " fill-opacity="1" fill-rule="nonzero"/></g></g></g></svg>